<?xml version="1.0" encoding="UTF-8"?><svg id="a" xmlns="http://www.w3.org/2000/svg" viewBox="0 0 2978.617 1006.721"><path d="M947.69,908.588c-4.915-2.212-11.168-3.317-18.762-3.317h-42.617l-16.551,99.842h47.776c7.237,0,13.591-1.128,19.064-3.384,5.472-2.255,9.894-5.383,13.268-9.381,3.372-3.998,5.483-8.588,6.332-13.771.848-5.003.513-9.381-1.005-13.134-1.52-3.752-3.887-6.711-7.103-8.878s-6.947-3.317-11.19-3.451v-.871c3.931-.759,7.539-2.088,10.822-3.987,3.284-1.897,6.02-4.243,8.208-7.035,2.188-2.792,3.551-5.886,4.087-9.281.893-5.36.29-10.039-1.809-14.038-2.1-3.997-5.606-7.103-10.52-9.313ZM928.793,971.609c-.581,3.752-2.323,6.679-5.227,8.778-2.904,2.1-6.612,3.149-11.123,3.149h-11.995l3.484-21.175h13.804c2.724,0,4.969.347,6.734,1.039,1.764.692,3.015,1.72,3.752,3.082.737,1.363.926,3.071.569,5.126ZM931.742,934.352c-.358,2.324-1.251,4.334-2.68,6.031-1.43,1.698-3.183,2.993-5.26,3.887-2.077.894-4.3,1.34-6.667,1.34h-10.453l3.149-19.03h12.263c3.351,0,5.907.637,7.672,1.91,1.764,1.272,2.423,3.228,1.977,5.862Z" fill="#1d1d1b"/><path d="M1039.792,909.325c-5.116-2.702-11.381-4.054-18.796-4.054h-43.019l-16.551,99.842h27.071l5.457-32.968h9.383l12.098,32.968h29.483l-14.209-37.237c5.613-2.485,10.302-6.011,14.042-10.607,3.998-4.913,6.577-10.944,7.739-18.092,1.161-7.058.614-13.122-1.642-18.192-2.256-5.07-5.942-8.956-11.056-11.66ZM1001.43,926.982h9.515c4.78,0,8.365.972,10.755,2.914,2.389,1.943,3.227,5.037,2.513,9.281-.447,2.859-1.43,5.159-2.948,6.901-1.519,1.742-3.484,3.016-5.896,3.819-2.413.805-5.227,1.206-8.443,1.206h-9.487l3.993-24.122Z" fill="#1d1d1b"/><polygon points="1127.874 965.31 1131.425 944.002 1090.283 944.002 1093.097 927.116 1137.992 927.116 1141.61 905.271 1069.644 905.271 1053.093 1005.113 1124.792 1005.113 1128.41 983.268 1083.783 983.268 1086.731 965.31 1127.874 965.31" fill="#1d1d1b"/><path d="M1184.027,905.271l-48.916,99.842h31.36l8.654-19.164h30.74l2.553,19.164h29.618l-17.02-99.842h-36.988ZM1199.628,927.362c.284,4.273.586,8.556.916,12.854.674,8.809,1.553,17.303,2.63,25.497h-18.918c3.687-8.194,7.198-16.688,10.526-25.497,1.624-4.298,3.239-8.581,4.847-12.854Z" fill="#1d1d1b"/><path d="M1323.202,905.271l-24.123,25.664c-4.289,4.602-7.885,8.645-10.788,12.129-1.311,1.573-2.551,3.133-3.739,4.683l3.873-21.033,3.552-21.442h-27.875l-16.551,99.842h27.875l4.281-25.877,15.009-14.464-.193.203,17.422,40.138h30.288l-27.373-56.841,42.047-43.001h-33.705Z" fill="#1d1d1b"/><polygon points="1479.665 905.271 1392.957 905.271 1389.338 927.116 1419.157 927.116 1406.225 1005.113 1433.295 1005.113 1446.228 927.116 1476.047 927.116 1479.665 905.271" fill="#1d1d1b"/><polygon points="1473.299 1005.113 1500.371 1005.113 1505.998 970.939 1544.863 970.939 1548.414 949.63 1509.551 949.63 1513.303 927.116 1556.455 927.116 1560.074 905.271 1489.85 905.271 1473.299 1005.113" fill="#1d1d1b"/><path d="M1664.774,908.689c-6.321-3.172-13.569-4.758-21.744-4.758-8.577,0-16.328,1.598-23.252,4.791-6.925,3.194-12.854,7.605-17.79,13.233-4.937,5.629-8.723,12.141-11.358,19.533-2.636,7.394-3.953,15.268-3.953,23.62,0,8.891,1.798,16.406,5.395,22.549,3.595,6.143,8.565,10.811,14.909,14.004,6.343,3.194,13.624,4.791,21.845,4.791,8.531,0,16.249-1.597,23.15-4.791,6.902-3.193,12.821-7.605,17.758-13.233,4.936-5.629,8.732-12.129,11.391-19.5,2.657-7.37,3.987-15.232,3.987-23.587,0-8.934-1.81-16.483-5.428-22.648-3.618-6.164-8.589-10.832-14.909-14.004ZM1655.996,958.006c-1.05,4.423-2.691,8.521-4.925,12.296-2.234,3.775-5.093,6.812-8.577,9.113s-7.662,3.45-12.53,3.45c-3.484,0-6.389-.658-8.711-1.977-2.323-1.316-4.077-3.283-5.26-5.896-1.185-2.613-1.776-5.84-1.776-9.683,0-4.198.524-8.498,1.575-12.899,1.049-4.399,2.69-8.486,4.925-12.262,2.233-3.774,5.104-6.823,8.61-9.146,3.507-2.322,7.694-3.484,12.564-3.484,3.484,0,6.388.659,8.711,1.977,2.322,1.318,4.064,3.272,5.227,5.863,1.161,2.591,1.742,5.829,1.742,9.716,0,4.199-.525,8.51-1.575,12.933Z" fill="#1d1d1b"/><path d="M1752.923,966.047c-.492,3.082-1.709,5.896-3.652,8.442-1.942,2.547-4.355,4.58-7.236,6.099-2.882,1.519-5.997,2.277-9.348,2.277-2.859,0-5.283-.613-7.271-1.842-1.988-1.229-3.407-2.971-4.255-5.228-.85-2.255-1.028-4.925-.536-8.007l10.319-62.519h-27.071l-10.453,63.055c-1.251,7.595-.492,14.25,2.278,19.968,2.77,5.719,7.236,10.152,13.401,13.302s13.646,4.724,22.447,4.724c8.354,0,15.903-1.429,22.649-4.288,6.744-2.858,12.306-7.003,16.685-12.431,4.378-5.428,7.191-11.938,8.443-19.532l10.721-64.797h-27.071l-10.051,60.776Z" fill="#1d1d1b"/><polygon points="1796.612 927.116 1826.431 927.116 1813.498 1005.113 1840.569 1005.113 1853.502 927.116 1883.32 927.116 1886.939 905.271 1800.23 905.271 1796.612 927.116" fill="#1d1d1b"/><polygon points="1902.619 905.271 1893.237 973.887 1917.629 973.887 1931.03 905.271 1902.619 905.271" fill="#1d1d1b"/><path d="M1902.619,979.516c-3.575,0-6.725,1.117-9.448,3.35-2.726,2.234-4.379,5.071-4.959,8.511-.715,4.333.156,7.974,2.613,10.922,2.456,2.948,5.807,4.423,10.052,4.423,3.573,0,6.723-1.117,9.447-3.351s4.378-5.069,4.959-8.51c.714-4.333-.157-7.975-2.613-10.923-2.457-2.948-5.808-4.422-10.051-4.422Z" fill="#1d1d1b"/><path d="M2448.499,592.702l48.245-82.147c11.385-19.383,11.373-46.45-.025-65.82l-13.692-23.274-11.767-19.915c-8.637-14.724-24.1-23.873-40.354-23.873h-69.188c-25.175,0-45.257,20.272-47.815,47.124h-47.504l123.694-218.468c4.842-8.255,7.735-19.124,7.735-29.077,0-16.957-6.906-31.794-17.837-41.422l362.87-16.648-224.176-64.514L627.334,0,0,206.697l553.287-16.475-58.49,99.94c-4.838,8.255-7.728,19.12-7.728,29.068,0,14.638,5.15,27.694,13.586,37.189h-96.37c-16.218,0-31.668,9.126-40.292,23.765l-124.532,210.78c-4.838,8.251-7.726,19.12-7.726,29.068,0,29.693,21.123,52.95,48.087,52.95h198.127l.61-.018c3.04-.09,16.919-.823,34.277-6.437,8.579,13.916,23.065,22.899,39.816,22.899h147.857c16.236,0,31.69-9.135,40.276-23.743l18.887-31.923c1.733-2.953,3.033-5.937,4.005-8.818h55.818c8.752,11.143,21.71,18.119,36.443,18.119h313.247c2.865,26.468,22.765,46.365,47.698,46.365h147.857c16.236,0,31.69-9.135,40.276-23.743l18.887-31.923c1.733-2.953,3.033-5.937,4.005-8.818h55.821c8.752,11.143,21.71,18.119,36.443,18.119h69.188c16.236,0,31.692-9.135,40.198-23.609l9.919-16.622c5.046,23.354,23.777,40.232,46.747,40.232l180.222-.004c16.24,0,31.699-9.14,40.256-23.703l38.603-65.096h25.199l-91.526,119.953c-10.837,14.206-12.647,32.977-4.724,48.987,7.929,16.024,23.942,25.972,41.786,25.972,1.51,0,3.04-.071,4.624-.228l808.975-84.011,248.978-72.202-530.118-.028ZM999.774,351.214l10.619-17.948c1.733-2.953,3.033-5.937,4.005-8.818h56.375c8.753,11.14,21.709,18.114,36.439,18.114h67.271l-174.71,8.652ZM1181.098,342.235c14.473-1.572,27.834-10.228,35.559-23.376l38.603-65.096h92.055l-3.978,6.71c-4.867,8.264-7.773,19.16-7.773,29.139,0,18.502,8.207,34.502,20.916,43.937l-175.383,8.685Z" fill="#1d1d1b"/><path d="M2103.347,637.247c-4.268.042-6.951-4.592-4.787-8.271l171.091-290.917c2.213-3.764-.643-8.481-5.005-8.264l-1609.714,79.715,1220.155.853,11.485-19.555c3.071-5.236,9.759-11.351,18.492-11.351h69.188c12.966,0,22.745,11.869,22.745,27.607,0,1.083-.116,2.234-.248,3.384l135.195.092-30.214,39.599h3.978c11.123,0,19.839,9.953,19.839,22.66,0,2.211-.319,7.9-3.312,13.006l-18.789,31.753c-3.071,5.238-9.759,11.356-18.492,11.356h-43.33l-129.913,170.265c-2.91,3.815.13,9.265,4.903,8.794l773.813-76.467-587.08,5.743Z" fill="#fff"/><path d="M1275.416,477.746c0-6.596-3.047-11.782-6.92-11.782h-345.941c-1.521,0-3.737,1.653-4.84,3.536l-66.619,112.363c-1.106,1.885-2.075,5.654-2.075,8.245,0,6.598,3.044,11.781,6.917,11.781h69.19c1.523,0,3.737-1.65,4.842-3.535l47.935-80.319c1.523-2.591,4.704-4.947,6.92-4.947h41.511c.969,0,1.664,1.177,1.664,2.828,0,.706-.141,1.648-.418,2.12l-38.112,63.827c-1.106,1.885-2.073,5.654-2.073,8.245,0,6.598,3.042,11.781,6.917,11.781h69.188c1.521,0,3.737-1.65,4.845-3.535l47.935-80.319c1.519-2.591,4.704-4.947,6.92-4.947h41.511c.969,0,1.66,1.177,1.66,2.828,0,.706-.136,1.648-.413,2.12l-38.112,63.827c-1.108,1.885-2.077,5.654-2.077,8.245,0,6.598,3.044,11.781,6.92,11.781h69.19c1.521,0,3.735-1.65,4.84-3.535l66.617-112.362c1.108-1.885,2.077-5.653,2.077-8.246Z" fill="#fff"/><path d="M1828.946,477.746c0-6.596-3.044-11.782-6.917-11.782h-235.24c-1.521,0-3.737,1.653-4.842,3.536l-66.617,112.363c-1.108,1.885-2.075,5.654-2.075,8.245,0,6.598,3.044,11.781,6.917,11.781h69.188c1.521,0,3.737-1.65,4.845-3.535l47.935-80.319c1.523-2.591,4.704-4.947,6.92-4.947h69.186c.972,0,1.662,1.177,1.662,2.828,0,.706-.138,1.648-.415,2.12l-38.11,63.827c-1.108,1.885-2.077,5.654-2.077,8.245,0,6.598,3.047,11.781,6.92,11.781h69.188c1.519,0,3.735-1.65,4.842-3.535l66.617-112.362c1.106-1.885,2.075-5.653,2.075-8.246Z" fill="#fff"/><path d="M2218.498,469.263l-55.351,94.481c-1.106,1.885-2.075,5.655-2.075,8.246,0,6.598,3.044,11.782,6.92,11.782h235.238c1.523,0,3.737-1.651,4.845-3.536l37.839-64.43,15.329-26.1c3.909-6.656,3.904-17.449-.007-24.098l-13.654-23.205-11.834-20.026c-1.106-1.885-3.321-3.534-4.842-3.534h-69.188c-3.875,0-6.92,5.182-6.92,11.78,0,2.591.969,6.361,2.075,8.246l25.132,42.789c1.599,2.727,1.601,7.15,0,9.881l-23.707,40.441c-1.751,2.989-4.13,4.666-6.609,4.666h-79.916c-.969,0-1.66-1.177-1.66-2.825,0-.708.275-1.651.552-2.122l10.875-18.61h66.108c3.748,0,7.366-2.343,10.167-6.587,9.363-14.174,3.473-40.538-9.053-40.538h-125.423c-1.521,0-3.735,1.412-4.842,3.297Z" fill="#fff"/><path d="M640.97,89.907c3.1-5.276,9.843-11.436,18.648-11.436h235.238c13.073,0,22.93,11.95,22.93,27.793,0,5.416-1.718,11.988-4.268,16.334l-9.359,15.99,268.496-7.996,23.725-40.397c3.102-5.267,9.846-11.418,18.637-11.418h69.19c13.073,0,22.93,11.948,22.93,27.79,0,5.425-1.722,11.999-4.282,16.354l-2.269,3.862,1181.885-35.19L633.396,41.347l-351.342,115.765,325.254-9.685,33.663-57.52Z" fill="#fff"/><path d="M1383.654,301.394h69.188c1.523,0,3.737-1.648,4.842-3.534l66.617-112.362c1.108-1.885,2.077-5.655,2.077-8.246,0-6.596-3.047-11.782-6.92-11.782h-69.19c-1.521,0-3.735,1.651-4.842,3.536l-66.615,112.362c-1.11,1.885-2.077,5.655-2.077,8.246,0,6.598,3.044,11.78,6.92,11.78Z" fill="#fff"/><path d="M1595.569,283.276h145.295c1.521,0,3.735-1.648,4.842-3.534l55.351-94.244c1.106-1.885,2.075-5.655,2.075-8.246,0-6.596-3.042-11.782-6.917-11.782h-235.24c-1.521,0-3.737,1.651-4.842,3.536l-18.82,31.809c-.69,1.177-1.106,3.297-1.106,4.947,0,3.768,1.798,6.833,4.012,6.833h145.295c3.875,0,6.917,5.184,6.917,11.78s-3.042,11.78-6.917,11.78h-166.05c-1.523,0-3.737,1.651-4.845,3.534l-13.837,23.562c-1.108,1.885-2.075,5.655-2.075,8.246s.967,6.361,2.075,8.246l39.761,66.052,86.098-4.217h.009l-32.327-53.354c-.277-.469-.413-1.412-.413-2.12,0-1.648.69-2.828,1.66-2.828Z" fill="#fff"/><path d="M2209.095,281.368c-1.108,1.885-2.077,5.655-2.077,8.246,0,6.598,3.044,11.78,6.92,11.78h69.188c1.521,0,3.735-1.648,4.842-3.534l66.617-112.362c1.106-1.885,2.075-5.655,2.075-8.246,0-6.596-3.044-11.782-6.917-11.782h-235.24c-1.523,0-3.737,1.651-4.842,3.536l-66.617,112.362c-1.108,1.885-2.077,5.655-2.077,8.246,0,6.598,3.047,11.78,6.92,11.78h69.19c1.519,0,3.732-1.648,4.842-3.534l47.935-80.319c1.523-2.593,4.704-4.947,6.92-4.947h69.186c.972,0,1.662,1.177,1.662,2.828,0,.706-.138,1.648-.415,2.12l-38.11,63.826Z" fill="#fff"/><path d="M1018.432,236.152h-66.108c-3.748,0-7.366,2.345-10.167,6.587-9.363,14.174-3.473,40.538,9.055,40.538h125.419c1.523,0,3.737-1.412,4.845-3.297l55.351-94.481c1.106-1.885,2.075-5.655,2.075-8.246,0-6.596-3.044-11.782-6.92-11.782h-235.238c-1.523,0-3.737,1.651-4.845,3.536l-93.369,158.73c-.23.391-.448.9-.658,1.427-.805,2.008-1.419,4.764-1.419,6.819,0,6.596,3.043,11.778,6.918,11.78h147.86c1.521,0,3.735-1.651,4.842-3.536l3.002-5.075,15.818-26.734c.69-1.177,1.106-3.297,1.106-4.947,0-3.768-1.798-6.833-4.012-6.833h-75.375c-.972,0-1.664-1.177-1.664-2.828,0-.599.123-1.313.322-1.82l46.406-78.73c1.751-2.986,4.128-4.666,6.607-4.666h79.916c.969,0,1.66,1.177,1.66,2.828,0,.706-.275,1.648-.552,2.12l-10.875,18.61Z" fill="#fff"/><path d="M1107.213,301.394h69.188c1.523,0,3.737-1.648,4.845-3.534l50.566-85.266h163.099c1.521,0,3.735-1.651,4.842-3.536l18.82-31.809c.69-1.177,1.106-3.297,1.106-4.945,0-3.77-1.798-6.835-4.012-6.835h-152.213c-.972,0-1.664-1.177-1.664-2.825,0-.599.123-1.316.322-1.823l23.131-39.523,3.809-6.484.048-.105c1.087-1.912,2.029-5.588,2.029-8.141,0-6.598-3.047-11.78-6.92-11.78h-69.19c-.928,0-2.094.65-3.131,1.559-.661.579-1.28,1.24-1.712,1.974l-107.805,183.046c-1.108,1.885-2.075,5.655-2.075,8.246,0,6.598,3.042,11.78,6.917,11.78Z" fill="#fff"/><path d="M2084.954,513.089c1.521,0,3.735-1.651,4.842-3.536l18.82-31.809c.69-1.177,1.106-3.297,1.106-4.945,0-3.77-1.798-6.835-4.012-6.835h-152.213c-.972,0-1.664-1.177-1.664-2.825,0-.599.123-1.316.322-1.823l23.131-39.523,3.809-6.484.048-.105c1.087-1.912,2.029-5.588,2.029-8.141,0-6.598-3.047-11.78-6.92-11.78h-69.19c-.928,0-2.094.65-3.131,1.559-.661.579-1.28,1.24-1.712,1.974l-107.805,183.046c-1.108,1.885-2.075,5.655-2.075,8.246,0,6.598,3.042,11.78,6.917,11.78h69.188c1.523,0,3.737-1.648,4.845-3.534l50.566-85.266h163.099Z" fill="#fff"/><path d="M888.18,477.746c0-6.596-3.044-11.782-6.92-11.782h-235.238c-1.523,0-3.737,1.651-4.845,3.536l-93.369,158.73c-.23.391-.448.9-.658,1.427-.805,2.008-1.419,4.764-1.419,6.819,0,6.596,3.043,11.778,6.918,11.78h147.86c1.521,0,3.735-1.651,4.842-3.536l3.002-5.075,15.818-26.734c.69-1.177,1.106-3.297,1.106-4.947,0-3.768-1.798-6.833-4.012-6.833h-75.375c-.972,0-1.664-1.177-1.664-2.828,0-.599.123-1.313.322-1.82l46.406-78.73c1.751-2.986,4.128-4.666,6.607-4.666h79.916c.969,0,1.66,1.177,1.66,2.828,0,.706-.275,1.648-.552,2.12l-10.875,18.61h-66.108c-3.748,0-7.366,2.345-10.167,6.587-9.363,14.174-3.473,40.538,9.055,40.538h125.419c1.523,0,3.737-1.412,4.845-3.297l55.351-94.481c1.106-1.885,2.075-5.655,2.075-8.246Z" fill="#fff"/><path d="M1552.411,477.746c0-6.596-3.044-11.782-6.92-11.782h-235.238c-1.523,0-3.737,1.651-4.845,3.536l-93.369,158.73c-.23.391-.448.9-.658,1.427-.805,2.008-1.419,4.764-1.419,6.819,0,6.596,3.043,11.778,6.918,11.78h147.86c1.521,0,3.735-1.651,4.842-3.536l3.002-5.075,15.818-26.734c.69-1.177,1.106-3.297,1.106-4.947,0-3.768-1.798-6.833-4.012-6.833h-75.375c-.972,0-1.664-1.177-1.664-2.828,0-.599.123-1.313.322-1.82l46.406-78.73c1.751-2.986,4.128-4.666,6.607-4.666h79.916c.969,0,1.66,1.177,1.66,2.828,0,.706-.275,1.648-.552,2.12l-10.875,18.61h-66.108c-3.748,0-7.366,2.345-10.167,6.587-9.363,14.174-3.473,40.538,9.055,40.538h125.419c1.523,0,3.737-1.412,4.845-3.297l55.351-94.481c1.106-1.885,2.075-5.655,2.075-8.246Z" fill="#fff"/><path d="M1959.658,236.152h-66.108c-3.748,0-7.366,2.345-10.167,6.587-9.363,14.174-3.473,40.538,9.055,40.538h125.419c1.523,0,3.737-1.412,4.845-3.297l55.351-94.481c1.106-1.885,2.075-5.655,2.075-8.246,0-6.596-3.044-11.782-6.92-11.782h-235.238c-1.523,0-3.737,1.651-4.845,3.536l-93.369,158.73c-.23.391-.448.9-.658,1.427-.801,2.001-1.412,4.74-1.417,6.79l169.595-8.588,8.844-14.947c.69-1.177,1.106-3.297,1.106-4.947,0-3.768-1.798-6.833-4.012-6.833h-75.375c-.972,0-1.664-1.177-1.664-2.828,0-.599.123-1.313.322-1.82l46.406-78.73c1.751-2.986,4.128-4.666,6.607-4.666h79.916c.969,0,1.66,1.177,1.66,2.828,0,.706-.275,1.648-.552,2.12l-10.875,18.61Z" fill="#fff"/><path d="M622.521,454.915c4.86-18.157.094-40.167-22.564-51.902-7.295-3.777-10.933-5.423-19.146-5.423h-176.525c-1.526,0-3.737,1.651-4.847,3.536l-124.46,210.659c-1.106,1.885-2.073,5.655-2.073,8.246,0,6.598,3.044,11.78,6.917,11.78h69.188c1.521,0,3.737-1.648,4.845-3.534l105.779-178.616c1.521-2.593,4.704-4.947,6.917-4.947h69.19c.967,0,1.66,1.177,1.66,2.828,0,.706-.136,1.648-.415,2.12l-82.688,135.025h-50.854c-3.75,0-7.369,2.343-10.17,6.585-9.361,14.177-3.473,40.54,9.053,40.54h75.015s43.966-1.3,66.441-37.381l68.953-116.804c4.208-7.127,7.646-14.715,9.785-22.711Z" fill="#fff"/><path d="M696.366,310.984c-1.108,1.885-2.075,5.655-2.075,8.246,0,6.598,3.042,11.78,6.917,11.78h69.188c1.523,0,3.737-1.648,4.845-3.534l124.46-212.661c1.106-1.885,2.075-5.655,2.075-8.246,0-6.596-3.044-11.782-6.92-11.782h-235.238c-1.523,0-3.737,1.651-4.845,3.536l-124.46,212.661c-1.106,1.885-2.075,5.655-2.075,8.246,0,6.598,3.044,11.78,6.92,11.78h69.188c1.521,0,3.737-1.648,4.842-3.534l105.781-180.617c1.521-2.593,4.704-4.947,6.917-4.947h69.188c.969,0,1.66,1.177,1.66,2.828,0,.706-.136,1.648-.413,2.12l-95.955,164.125Z" fill="#fff"/></svg>